<?xml version="1.0" encoding="UTF-8"?>
<svg width="348px" height="184px" viewBox="0 0 348 184" version="1.1" xmlns="http://www.w3.org/2000/svg" xmlns:xlink="http://www.w3.org/1999/xlink">
    <!-- Generator: Sketch 49.3 (51167) - http://www.bohemiancoding.com/sketch -->
    <title>Group 28</title>
    <desc>Created with Sketch.</desc>
    <defs></defs>
    <g id="Page-1" stroke="none" stroke-width="1" fill="none" fill-rule="evenodd">
        <g transform="translate(-421.000000, -302.000000)" fill="#FFFFFF" id="Group-28">
            <g transform="translate(421.000000, 302.000000)">
                <path d="M70.1873,115.7138 C65.3513,115.7138 61.1803,114.7828 57.6723,112.9238 C54.1593,111.0648 51.4633,108.3548 49.5783,104.7988 C47.6943,101.2408 46.7573,96.9748 46.7573,91.9998 C46.7573,87.0248 47.6943,82.7598 49.5783,79.2008 C51.4633,75.6448 54.1593,72.9378 57.6723,71.0758 C61.1803,69.2168 65.3513,68.2868 70.1873,68.2868 L70.1873,80.4918 C67.8203,80.4918 66.0833,81.4118 64.9943,83.2478 C63.8993,85.0838 63.3533,88.0008 63.3533,91.9998 C63.3533,95.9988 63.8993,98.9158 64.9943,100.7528 C66.0833,102.5908 67.8203,103.5078 70.1873,103.5078 L70.1873,115.7138 Z" id="Fill-13"></path>
                <path d="M155.4827,103.5078 C157.8547,103.5078 159.5757,102.5918 160.6477,100.7518 C161.7147,98.9158 162.2477,95.9988 162.2477,91.9998 C162.2477,88.0008 161.7147,85.0838 160.6477,83.2478 C159.5757,81.4118 157.8547,80.4918 155.4827,80.4918 L155.4827,68.2858 C162.8327,68.2858 168.5597,70.3698 172.6747,74.5298 C176.7897,78.6908 178.8497,84.5138 178.8497,91.9998 C178.8497,99.4868 176.7897,105.3098 172.6747,109.4708 C168.5597,113.6338 162.8327,115.7138 155.4827,115.7138 L155.4827,103.5078 Z" id="Fill-15"></path>
                <path d="M228.5443,95.2069 C228.5443,108.8769 221.1263,115.7139 206.2953,115.7139 C191.4643,115.7139 184.0463,108.8769 184.0463,95.2069 L184.0463,68.9849 L200.3693,68.9849 L200.3693,96.4639 C200.3693,98.7879 200.8693,100.5419 201.8683,101.7279 C202.8673,102.9149 204.3423,103.5079 206.2953,103.5079 C208.2473,103.5079 209.7353,102.9149 210.7623,101.7279 C211.7843,100.5419 212.2943,98.7879 212.2943,96.4639 L212.2943,68.9849 L228.5443,68.9849 L228.5443,95.2069 Z" id="Fill-16"></path>
                <path d="M249.6381,89.0713 L255.4271,89.0713 C257.4761,89.0713 258.9291,88.7563 259.7871,88.1293 C260.6491,87.5013 261.0801,86.3983 261.0801,84.8173 C261.0801,83.2823 260.6491,82.1893 259.7871,81.5393 C258.9291,80.8873 257.4761,80.5603 255.4271,80.5603 L249.6381,80.5603 L249.6381,89.0713 Z M254.1051,99.7413 L249.6381,99.7413 L249.6381,115.0163 L233.7401,115.0163 L233.7401,68.9843 L258.7081,68.9843 C264.8431,68.9843 269.4801,70.2733 272.6191,72.8553 C275.7581,75.4353 277.3301,79.2833 277.3301,84.3973 C277.3301,91.1403 274.5611,95.6723 269.0261,97.9963 L279.9071,115.0163 L262.2611,115.0163 L254.1051,99.7413 Z" id="Fill-17"></path>
                <polygon id="Fill-18" points="86.4371 148.265 86.4371 154.681 104.1511 154.681 104.1511 166.61 86.4371 166.61 86.4371 182.371 70.1871 182.371 70.1871 136.34 108.3341 136.34 108.3341 148.265"></polygon>
                <path d="M156.4592,162.5625 C156.4592,176.2325 149.0412,183.0695 134.2102,183.0695 C119.3792,183.0695 111.9612,176.2325 111.9612,162.5625 L111.9612,136.3405 L128.2852,136.3405 L128.2852,163.8195 C128.2852,166.1445 128.7842,167.8975 129.7832,169.0845 C130.7822,170.2705 132.2572,170.8635 134.2102,170.8635 C136.1622,170.8635 137.6502,170.2705 138.6772,169.0845 C139.6992,167.8975 140.2092,166.1445 140.2092,163.8195 L140.2092,136.3405 L156.4592,136.3405 L156.4592,162.5625 Z" id="Fill-19"></path>
                <polygon id="Fill-20" points="205.3503 148.265 190.9843 148.265 190.9843 182.371 174.7353 182.371 174.7353 148.265 160.2953 148.265 160.2953 136.34 205.3503 136.34"></polygon>
                <path d="M254.7294,162.5625 C254.7294,176.2325 247.3114,183.0695 232.4804,183.0695 C217.6434,183.0695 210.2314,176.2325 210.2314,162.5625 L210.2314,136.3405 L226.5494,136.3405 L226.5494,163.8195 C226.5494,166.1445 227.0484,167.8975 228.0474,169.0845 C229.0464,170.2705 230.5274,170.8635 232.4804,170.8635 C234.4324,170.8635 235.9204,170.2705 236.9414,169.0845 C237.9634,167.8975 238.4734,166.1445 238.4734,163.8195 L238.4734,136.3405 L254.7294,136.3405 L254.7294,162.5625 Z" id="Fill-21"></path>
                <path d="M275.5137,156.4268 L281.3027,156.4268 C283.3467,156.4268 284.7997,156.1118 285.6627,155.4848 C286.5187,154.8578 286.9507,153.7538 286.9507,152.1728 C286.9507,150.6378 286.5187,149.5448 285.6627,148.8948 C284.7997,148.2428 283.3467,147.9158 281.3027,147.9158 L275.5137,147.9158 L275.5137,156.4268 Z M279.9747,167.0978 L275.5137,167.0978 L275.5137,182.3718 L259.6097,182.3718 L259.6097,136.3398 L284.5777,136.3398 C290.7187,136.3398 295.3557,137.6288 298.4957,140.2108 C301.6337,142.7908 303.1997,146.6388 303.1997,151.7528 C303.1997,158.4958 300.4357,163.0278 294.9027,165.3528 L305.7827,182.3718 L288.1367,182.3718 L279.9747,167.0978 Z" id="Fill-22"></path>
                <polygon id="Fill-23" points="347.8347 170.4463 347.8347 182.3713 308.7787 182.3713 308.7787 136.3403 346.9997 136.3403 346.9997 148.2643 325.0297 148.2643 325.0297 153.9863 342.7437 153.9863 342.7437 165.0063 325.0297 165.0063 325.0297 170.4463"></polygon>
                <polygon id="Fill-24" points="200.6053 1.6287 200.6053 47.6597 184.3553 47.6597 184.3553 30.5017 171.7333 30.5017 171.7333 47.6597 155.4823 47.6597 155.4823 1.6287 171.7333 1.6287 171.7333 18.5767 184.3553 18.5767 184.3553 1.6287"></polygon>
                <path d="M231.7822,28.7595 L228.0812,13.4145 L227.8712,13.4145 L226.0602,21.2275 L224.1772,28.7595 L231.7822,28.7595 Z M234.1492,38.8715 L221.7352,38.8715 L219.5732,47.6595 L203.3922,47.6595 L218.3192,1.6285 L237.8492,1.6285 L252.8442,47.6595 L236.2432,47.6595 L234.1492,38.8715 Z" id="Fill-25"></path>
                <path d="M275.7861,48.3582 C270.9501,48.3582 266.7791,47.4272 263.2711,45.5682 C259.7581,43.7092 257.0611,40.9992 255.1781,37.4432 C253.2931,33.8852 252.3571,29.6192 252.3571,24.6442 C252.3571,19.6692 253.2931,15.4042 255.1781,11.8452 C257.0611,8.2892 259.7581,5.5822 263.2711,3.7202 C266.7791,1.8612 270.9501,0.9312 275.7861,0.9312 C281.1841,0.9312 285.7861,2.0832 289.5961,4.3842 C293.4101,6.6862 295.7811,10.1852 296.7131,14.8792 L282.7621,20.3192 C282.3931,17.4842 281.7171,15.5772 280.7411,14.6012 C279.7651,13.6252 278.2491,13.1362 276.2061,13.1362 C273.7881,13.1362 271.9781,14.0672 270.7681,15.9262 C269.5601,17.7852 268.9521,20.6942 268.9521,24.6442 C268.9521,28.5972 269.5311,31.5042 270.6951,33.3622 C271.8581,35.2212 273.6471,36.1522 276.0701,36.1522 C278.2491,36.1522 279.8331,35.6642 280.8091,34.6882 C281.7861,33.7112 282.4161,32.1082 282.6931,29.8742 L297.0591,33.5722 C294.6861,43.4282 287.5981,48.3582 275.7861,48.3582" id="Fill-26"></path>
                <polygon id="Fill-27" points="321.0504 30.4338 317.2874 35.5928 317.2874 47.6598 301.0374 47.6598 301.0374 1.6288 317.2874 1.6288 317.2874 18.7868 329.2804 1.6288 346.5804 1.6288 332.4924 19.9028 347.8344 47.6598 329.6324 47.6598"></polygon>
                <polygon id="Fill-11" points="32.5231 99.0437 32.5231 115.0157 16.2731 115.0157 16.2731 99.0437 0.1661 68.9847 16.3471 68.9847 21.2281 79.5157 24.5031 87.8857 27.7841 79.5157 32.6651 68.9847 48.6371 68.9847"></polygon>
            </g>
        </g>
    </g>
</svg>